<svg width="520" height="33" viewBox="0 0 520 33" fill="none" xmlns="http://www.w3.org/2000/svg">
<path d="M511.769 7.5613V16.0979H493.784V7.5613H486.16V31.9518H493.784V22.8924H511.769V31.9518H519.391V7.5613H511.769ZM469.25 25.4353H459.962C456.671 25.4353 454.418 23.0662 454.418 19.7555C454.418 16.6554 456.672 14.286 459.962 14.286H469.25C471.883 14.286 473.859 15.9237 474.552 18.0488H482.452C481.691 11.4628 476.423 7.14282 469.25 7.14282H459.962C452.201 7.14282 446.658 12.23 446.658 19.7555C446.658 27.3168 452.373 32.37 459.962 32.37H469.25C476.422 32.37 481.691 28.05 482.452 21.4643H474.552C473.86 23.6237 471.883 25.4353 469.25 25.4353ZM436.263 31.9515H443.889V24.7395H436.263V31.9515ZM431.455 14.286V7.5613H398.431V14.286H411.114V25.2272H398.431V31.9515H431.455V25.2272H418.736V14.286H431.455ZM370.009 19.6523V14.286H384.806C386.261 14.286 387.474 15.4713 387.474 16.9682C387.474 18.467 386.261 19.6523 384.806 19.6523H370.009ZM362.352 31.9515H370.01V26.377H382.415L385.709 31.9515H394.544L390.108 25.1225C393.227 23.5199 395.099 20.4535 395.099 16.9682C395.099 11.7779 391.01 7.5613 384.806 7.5613H362.352L362.352 31.9515ZM336.398 32.37H345.684C353.101 32.37 357.64 28.3974 357.64 20.8361V7.5613H350.016V20.3145C350.016 22.8924 348.907 25.158 345.684 25.158H336.398C333.208 25.158 332.066 22.8924 332.066 20.3145V7.5613H324.442V20.8361C324.442 28.3971 328.981 32.37 336.398 32.37ZM341.871 6.30648H348.282V0H341.871V6.30648ZM333.693 6.30648H340.106V0H333.693V6.30648ZM320.205 7.5613H289.364V14.286H306.308L289.364 25.2272V31.9515H320.205V25.2272H302.67L320.205 14.286V7.5613ZM277.301 7.5613L266.664 17.1091L255.748 7.5613H248.297V31.9518H255.748V17.8052L266.664 27.3168L277.301 17.9099V31.9518H284.752V7.5613H277.301ZM222.343 32.37H231.629C239.045 32.37 243.585 28.3974 243.585 20.8361V7.5613H235.961V20.3145C235.961 22.8924 234.853 25.158 231.629 25.158H222.343C219.155 25.158 218.011 22.8924 218.011 20.3145V7.5613H210.388V20.8361C210.388 28.3971 214.927 32.37 222.343 32.37ZM206.086 14.1809V7.5613H177.083V31.9518H206.086V25.3322H184.705V22.9612H203.73V16.6211H184.705V14.1809H206.086ZM148.08 19.6523V14.286H162.877C164.332 14.286 165.545 15.4713 165.545 16.9682C165.545 18.467 164.332 19.6523 162.877 19.6523H148.08ZM140.422 31.9515H148.08V26.377H160.485L163.778 31.9515H172.614L168.179 25.1225C171.298 23.5199 173.168 20.4535 173.168 16.9682C173.168 11.7779 169.079 7.5613 162.877 7.5613H140.422L140.422 31.9515ZM135.754 14.1809V7.5613H106.75V31.9518H135.753V25.3322H114.373V22.9612H133.397V16.6211H114.373V14.1809H135.754ZM94.2992 7.5613V16.0979H76.3144V7.5613H68.6912V31.9518H76.3144V22.8924H94.2992V31.9518H101.923V7.5613H94.2992ZM65.3517 7.5613H32.3281V14.286H45.0105V31.9518H52.6346V14.286H65.352V7.5613H65.3517ZM29.0037 14.1809V7.5613H0V31.9518H29.0037V25.3322H7.62317V22.9612H26.6477V16.6211H7.62317V14.1809H29.0037Z" fill="black"/>
</svg>
