<svg width="29" height="26" viewBox="0 0 29 26" fill="none" xmlns="http://www.w3.org/2000/svg">
<path d="M28.5 3.44561C27.7064 4.71405 26.7327 5.79534 25.579 6.68947C25.5904 6.92927 25.5961 7.2003 25.5961 7.50257C25.5961 9.18206 25.3682 10.8636 24.9124 12.5471C24.4567 14.2307 23.7605 15.8422 22.8239 17.3815C21.8872 18.9209 20.7716 20.2846 19.4768 21.4728C18.1821 22.6609 16.6258 23.6082 14.8078 24.3148C12.9899 25.0214 11.0416 25.3746 8.96281 25.3746C5.7186 25.3746 2.73099 24.4336 0 22.5514C0.484719 22.6094 0.949605 22.6384 1.39466 22.6384C4.10494 22.6384 6.52565 21.7414 8.6568 19.9474C7.39312 19.9225 6.26139 19.5045 5.26163 18.6935C4.26186 17.8824 3.57385 16.846 3.19758 15.5843C3.5695 15.6604 3.93656 15.6985 4.29878 15.6985C4.82017 15.6985 5.33321 15.6254 5.8379 15.4793C4.48931 15.1891 3.37054 14.4673 2.48159 13.3141C1.59268 12.1609 1.14822 10.8299 1.14822 9.321V9.24324C1.97599 9.73571 2.85893 9.99767 3.79705 10.0291C2.99816 9.45684 2.36476 8.71058 1.89685 7.79033C1.42891 6.87009 1.19494 5.87422 1.19494 4.80273C1.19494 3.67266 1.45848 2.62036 1.98556 1.64581C3.45213 3.57959 5.22918 5.12513 7.31671 6.28243C9.40428 7.43974 11.6438 8.08247 14.0354 8.21063C13.9334 7.75387 13.8823 7.27721 13.8821 6.78066C13.8821 5.0469 14.4531 3.56652 15.5951 2.33952C16.7372 1.11252 18.115 0.499023 19.7285 0.499023C21.4179 0.499023 22.8408 1.15998 23.9974 2.48188C25.3188 2.20064 26.5561 1.69194 27.7092 0.955789C27.265 2.45811 26.4089 3.61705 25.141 4.4326C26.3063 4.28381 27.426 3.95482 28.5 3.44561H28.5Z" fill="black"/>
</svg>
